<svg xmlns="http://www.w3.org/2000/svg" viewBox="0 0 40 40"><circle cx="20" cy="20" r="20" fill="#333"/><path d="M20 8C13.37 8 8 13.37 8 20c0 5.3 3.44 9.8 8.2 11.39.6.11.82-.26.82-.58v-2.03c-3.34.73-4.04-1.61-4.04-1.61-.55-1.39-1.33-1.76-1.33-1.76-1.09-.74.08-.73.08-.73 1.2.09 1.84 1.24 1.84 1.24 1.07 1.83 2.8 1.3 3.49 1 .11-.78.42-1.3.76-1.6-2.67-.3-5.47-1.33-5.47-5.93 0-1.31.47-2.38 1.24-3.22-.13-.3-.54-1.52.12-3.18 0 0 1.01-.32 3.3 1.23a11.5 11.5 0 016.02 0c2.3-1.55 3.3-1.23 3.3-1.23.66 1.66.24 2.88.12 3.18.77.84 1.24 1.91 1.24 3.22 0 4.61-2.81 5.63-5.48 5.92.43.37.81 1.1.81 2.22v3.29c0 .32.22.7.82.58C28.56 29.8 32 25.3 32 20c0-6.63-5.37-12-12-12z" fill="#fff"/></svg>
